<?xml version="1.0" encoding="UTF-8"?>
<svg id="Layer_2" data-name="Layer 2" xmlns="http://www.w3.org/2000/svg" viewBox="0 0 671.85 193.27">
  <defs>
    <style>
      .cls-1 {
        fill: #4694ce;
        stroke: #fff;
        stroke-miterlimit: 10;
      }
    </style>
  </defs>
  <path class="cls-1" d="M144.88,91.61c-1.35,0-7.72.07-9.03.21v18.47c1.29-.26,7.66-.41,9.03-.41,11.02,0,19.98,8.97,19.98,19.99s-8.96,19.98-19.98,19.98c-1.37,0-17.71.02-17.71.02h-8v-69.26h27.47v-18.06h-20.51c3.34-3.96,5.36-9.08,5.36-14.67,0-12.56-10.18-22.75-22.74-22.75s-22.75,10.18-22.75,22.75c0,5.59,2.01,10.71,5.36,14.67h-20.72v18.06h27.69v69.26h-8.22s-16.34-.02-17.71-.02c-11.02,0-19.98-8.96-19.98-19.98s8.96-19.99,19.98-19.99c1.37,0,7.74.14,9.03.41v-18.47c-1.32-.14-7.68-.21-9.03-.21-21.1,0-38.26,17.16-38.26,38.26s17.16,38.26,38.26,38.26c1.35,0,16.4-.07,17.71-.21h37.05c1.32.14,16.36.21,17.71.21,21.1,0,38.26-17.16,38.26-38.26s-17.16-38.26-38.26-38.26ZM108.75,37.9c5.51,0,9.99,4.47,9.99,9.99s-4.47,9.99-9.99,9.99-9.99-4.47-9.99-9.99,4.47-9.99,9.99-9.99Z"/>
  <g>
    <path class="cls-1" d="M392.41,122.55c1.06,0,5.99.11,7,.31v-14.31c-1.02-.11-5.95-.16-7-.16-16.34,0-29.63,13.29-29.63,29.63s13.29,29.63,29.63,29.63c1.05,0,19.07-.05,20.09-.16v-14.3c-1,.21-19.03.31-20.09.31-8.53,0-15.48-6.94-15.48-15.48s6.94-15.48,15.48-15.48Z"/>
    <path class="cls-1" d="M445.66,122.55c1.06,0,5.99.11,7,.31v-14.31c-1.02-.11-5.95-.16-7-.16-16.34,0-29.63,13.29-29.63,29.63s13.29,29.63,29.63,29.63c1.05,0,19.07-.05,20.09-.16v-14.3c-1,.21-19.03.31-20.09.31-8.53,0-15.48-6.94-15.48-15.48s6.94-15.48,15.48-15.48Z"/>
    <path class="cls-1" d="M654.26,138.32h-14.15c0-8.53-6.95-15.48-15.48-15.48s-15.48,6.95-15.48,15.48v29.81h-14.15v-59.48h14.15v4.41c4.51-2.77,9.81-4.37,15.48-4.37,16.34,0,29.63,13.29,29.63,29.63Z"/>
    <path class="cls-1" d="M528.56,138.32v29.81h-14.15v-29.81c0-8.54-6.94-15.48-15.48-15.48s-15.48,6.94-15.48,15.48v29.81h-14.15v-91.32h14.15v36.25c4.51-2.77,9.81-4.37,15.48-4.37,16.34,0,29.63,13.29,29.63,29.63Z"/>
    <path class="cls-1" d="M561.78,167.77c-16.34,0-29.63-13.29-29.63-29.63s13.29-29.63,29.63-29.63,29.63,13.29,29.63,29.63-13.29,29.63-29.63,29.63ZM561.78,122.65c-8.54,0-15.48,6.94-15.48,15.48s6.94,15.48,15.48,15.48,15.48-6.94,15.48-15.48-6.94-15.48-15.48-15.48Z"/>
    <path class="cls-1" d="M359.24,137.96v29.81h-14.15v-29.81c0-8.53-6.94-15.48-15.48-15.48s-15.48,6.95-15.48,15.48v29.81h-14.15v-59.48h14.15v4.41c4.51-2.77,9.81-4.37,15.48-4.37,16.34,0,29.63,13.29,29.63,29.63Z"/>
    <path class="cls-1" d="M282.35,108.14v6.1c-4.82-3.39-10.68-5.38-17.01-5.38-16.34,0-29.63,13.29-29.63,29.63s13.29,29.63,29.63,29.63c6.32,0,12.19-1.99,17.01-5.38v4.87h14.15v-59.48h-14.15ZM265.34,153.97c-8.53,0-15.48-6.95-15.48-15.48s6.95-15.48,15.48-15.48,15.48,6.95,15.48,15.48-6.94,15.48-15.48,15.48Z"/>
  </g>
</svg>