<?xml version="1.0" encoding="UTF-8"?>
<svg id="Layer_2" data-name="Layer 2" xmlns="http://www.w3.org/2000/svg" viewBox="0 0 671.85 193.27">
  <defs>
    <style>
      .cls-1, .cls-2 {
        fill: #4694ce;
      }

      .cls-2 {
        stroke: #4694ce;
        stroke-miterlimit: 10;
        stroke-width: 3px;
      }
    </style>
  </defs>
  <path class="cls-1" d="M75.47,25.15c.06,0,.11,0,.17.01v-.02c-.05,0-.11,0-.17.01Z"/>
  <path class="cls-2" d="M121.94,111.42c-1.06-.48-12.15-5.58-12.15-5.58,0,0-2.94,8.4-1.22,13.01,1.73,4.6,5.85,6.29,6.92,6.78,8.56,3.89,12.37,14.02,8.48,22.58-3.89,8.56-14.02,12.36-22.58,8.48-1.06-.48-13.78-6.23-13.78-6.23l-6.38-2.9,32.48-72.14,21.52,9.77,6.37-14.04-16.1-7.31c3.99-1.9,7.37-5.16,9.34-9.51,4.36-9.6.25-20.9-9.19-25.48-.04-.03-.08-.05-.13-.07l-.12-.05s-.09-.04-.14-.05c-9.65-4.09-20.87.24-25.24,9.85-1.97,4.34-2.21,9.04-1.01,13.29l-16.1-7.31-6.37,14.04,21.52,9.77-32.48,72.14-6.38-2.9s-12.7-5.79-13.76-6.28c-8.56-3.89-12.37-14.02-8.48-22.58,3.89-8.56,14.02-12.36,22.58-8.48,1.06.48,5.05,2.47,9.65.75,4.6-1.73,8.99-9.48,8.99-9.48,0,0-11.14-4.99-12.2-5.47-16.39-7.44-35.79-.16-43.23,16.23s-.17,35.79,16.22,43.24c1.06.48,12.77,5.73,13.85,6.09l28.41,12.9c.98.57,12.64,5.94,13.7,6.42,16.39,7.44,35.78.17,43.23-16.23s.17-35.79-16.22-43.24ZM113.91,54.18c-4.1-2.03-5.87-6.96-3.97-11.16,1.91-4.2,6.79-6.11,11.01-4.35,4.09,2.04,5.87,6.96,3.96,11.16s-6.78,6.1-11.01,4.36Z"/>
  <path class="cls-1" d="M75.15,25.14v.02c.06-.01.11-.01.17-.01-.06-.01-.11-.01-.17-.01Z"/>
  <g>
    <path class="cls-1" d="M666.26,144.69s-9.4-.86-13.1-4.66c-3.68-3.81-3.51-6.68-3.51-7.95,0-10.28-8.11-12.66-18.08-12.66s-18.08,8.38-18.08,18.66c0,1.27-.02,16.54-.02,16.54v7.66h-.01v5.85h-16.51v-69.36h16.51v8.89c5.27-3.35,11.47-5.29,18.11-5.29,19.09,0,34.62,10.02,34.62,29.71,0,1.27.07,12.61.07,12.61Z"/>
    <path class="cls-1" d="M519.47,133.37v34.76h-16.51v-34.76c0-9.96-8.1-18.05-18.05-18.05s-18.05,8.1-18.05,18.05v34.76h-16.51V61.63h16.51v42.28c5.26-3.24,11.44-5.1,18.05-5.1,19.06,0,34.56,15.5,34.56,34.56Z"/>
    <path class="cls-1" d="M558.21,167.71c-19.06,0-34.56-15.5-34.56-34.56s15.5-34.56,34.56-34.56,34.56,15.5,34.56,34.56-15.5,34.56-34.56,34.56ZM558.21,115.09c-9.95,0-18.05,8.1-18.05,18.05s8.1,18.05,18.05,18.05,18.05-8.1,18.05-18.05-8.1-18.05-18.05-18.05Z"/>
    <path class="cls-1" d="M322.14,169.36s-9.4-.86-13.1-4.66c-2.59-2.68-3.27-5.88-3.45-7.99l.06-20.4-.15-3.36c0-9.95-8.09-18.05-18.05-18.05s-18.05,8.1-18.05,18.05v34.77h-16.51v-69.37h16.51v5.14c5.26-3.23,11.44-5.1,18.05-5.1,19.06,0,34.56,15.5,34.56,34.56v19.61c.04.72.06,1.45.06,2.19,0,1.27.07,14.61.07,14.61Z"/>
    <path class="cls-1" d="M232.34,98.17v7.11c-5.62-3.95-12.46-6.27-19.83-6.27-19.06,0-34.56,15.5-34.56,34.56s15.5,34.56,34.56,34.56c7.37,0,14.22-2.32,19.83-6.27v5.68h16.51v-69.37h-16.51ZM212.51,151.62c-9.95,0-18.05-8.1-18.05-18.05s8.1-18.05,18.05-18.05,18.05,8.1,18.05,18.05-8.1,18.05-18.05,18.05Z"/>
    <path class="cls-1" d="M385.64,151.09h-7.66s-15.26-.03-16.54-.03c-10.28,0-18.65-8.36-18.65-18.65s8.37-18.65,18.65-18.65c1.28,0,6.14.18,9.95-3.62,3.8-3.81,4.67-13.51,4.67-13.51,0,0-13.35.07-14.62.07-19.69,0-35.71,16.03-35.71,35.71s16.02,35.71,35.71,35.71c1.27,0,15.31-.07,16.54-.2h7.78l-.12-16.84Z"/>
    <path class="cls-1" d="M445.6,151.09h-7.66s-15.26-.03-16.54-.03c-10.28,0-18.65-8.36-18.65-18.65s8.37-18.65,18.65-18.65c1.28,0,6.14.18,9.95-3.62,3.8-3.81,4.67-13.51,4.67-13.51,0,0-13.35.07-14.62.07-19.69,0-35.71,16.03-35.71,35.71s16.02,35.71,35.71,35.71c1.27,0,15.31-.07,16.54-.2h7.78l-.12-16.84Z"/>
  </g>
</svg>