<?xml version="1.0" encoding="UTF-8"?>
<svg id="Layer_2" data-name="Layer 2" xmlns="http://www.w3.org/2000/svg" viewBox="0 0 671.85 193.27">
  <defs>
    <style>
      .cls-1 {
        fill: #4694ce;
      }

      .cls-2 {
        stroke: #fff;
        stroke-miterlimit: 10;
      }
    </style>
  </defs>
  <path class="cls-1" d="M111.88,91.61c-1.35,0-7.72.07-9.03.21v18.47c1.29-.26,7.66-.41,9.03-.41,11.02,0,19.98,8.97,19.98,19.99s-8.96,19.98-19.98,19.98c-1.37,0-17.71.02-17.71.02h-8v-69.26h27.47v-18.06h-20.51c3.34-3.96,5.36-9.08,5.36-14.67,0-12.56-10.18-22.75-22.74-22.75s-22.75,10.18-22.75,22.75c0,5.59,2.01,10.71,5.36,14.67h-20.72v18.06h27.69v69.26h-8.22s-16.34-.02-17.71-.02c-11.02,0-19.98-8.96-19.98-19.98s8.96-19.99,19.98-19.99c1.37,0,19.74.14,21.03.41v-18.47c-1.32-.14-19.68-.21-21.03-.21-21.1,0-38.26,17.16-38.26,38.26s17.16,38.26,38.26,38.26c1.35,0,16.4-.07,17.71-.21h37.05c1.32.14,16.36.21,17.71.21,21.1,0,38.26-17.16,38.26-38.26s-17.16-38.26-38.26-38.26ZM75.75,37.9c5.51,0,9.99,4.47,9.99,9.99s-4.47,9.99-9.99,9.99-9.99-4.47-9.99-9.99,4.47-9.99,9.99-9.99Z"/>
  <g>
    <path class="cls-2" d="M671.26,133.37h-16.51c0-9.95-8.1-18.05-18.05-18.05s-18.05,8.1-18.05,18.05v34.76h-16.51v-69.36h16.51v5.14c5.26-3.24,11.44-5.1,18.05-5.1,19.06,0,34.56,15.5,34.56,34.56Z"/>
    <path class="cls-2" d="M524.66,133.37v34.76h-16.51v-34.76c0-9.96-8.1-18.05-18.05-18.05s-18.05,8.1-18.05,18.05v34.76h-16.51V61.63h16.51v42.28c5.26-3.24,11.44-5.1,18.05-5.1,19.06,0,34.56,15.5,34.56,34.56Z"/>
    <path class="cls-2" d="M563.4,167.71c-19.06,0-34.56-15.5-34.56-34.56s15.5-34.56,34.56-34.56,34.56,15.5,34.56,34.56-15.5,34.56-34.56,34.56ZM563.4,115.09c-9.95,0-18.05,8.1-18.05,18.05s8.1,18.05,18.05,18.05,18.05-8.1,18.05-18.05-8.1-18.05-18.05-18.05Z"/>
    <path class="cls-2" d="M327.2,132.95v34.77h-16.51v-34.77c0-9.95-8.1-18.05-18.05-18.05s-18.05,8.1-18.05,18.05v34.77h-16.51v-69.37h16.51v5.14c5.26-3.24,11.44-5.1,18.05-5.1,19.06,0,34.56,15.5,34.56,34.56Z"/>
    <path class="cls-2" d="M237.53,98.17v7.11c-5.62-3.95-12.46-6.27-19.83-6.27-19.06,0-34.56,15.5-34.56,34.56s15.5,34.56,34.56,34.56c7.37,0,14.22-2.32,19.83-6.27v5.68h16.51v-69.37h-16.51ZM217.7,151.62c-9.95,0-18.05-8.1-18.05-18.05s8.1-18.05,18.05-18.05,18.05,8.1,18.05,18.05-8.1,18.05-18.05,18.05Z"/>
    <path d="M388.92,150.75h-7.37s-14.66-.02-15.89-.02c-9.89,0-17.93-8.04-17.93-17.93s8.04-17.93,17.93-17.93c1.23,0,17.71.13,18.87.36v-16.57c-1.18-.13-17.66-.19-18.87-.19-18.93,0-34.33,15.4-34.33,34.33s15.4,34.33,34.33,34.33c1.21,0,14.71-.06,15.89-.19h7.17l.2-16.19Z"/>
    <path d="M449.69,150.75h-7.37s-14.66-.02-15.89-.02c-9.89,0-17.93-8.04-17.93-17.93s8.04-17.93,17.93-17.93c1.23,0,17.71.13,18.87.36v-16.57c-1.18-.13-17.66-.19-18.87-.19-18.93,0-34.33,15.4-34.33,34.33s15.4,34.33,34.33,34.33c1.21,0,14.71-.06,15.89-.19h7.17l.2-16.19Z"/>
  </g>
</svg>