<?xml version="1.0" encoding="UTF-8"?>
<svg id="Layer_2" data-name="Layer 2" xmlns="http://www.w3.org/2000/svg" viewBox="0 0 767.34 243.05">
  <defs>
    <style>
      .cls-1 {
        fill: #4694ce;
      }
    </style>
  </defs>
  <path class="cls-1" d="M127.27,71.66c0,5.4-4.28,9.79-9.63,9.98-5.36-.18-9.64-4.58-9.64-9.98s4.28-9.8,9.64-9.98c5.35.19,9.63,4.58,9.63,9.98Z"/>
  <path class="cls-1" d="M117.63,7.77C52.66,7.77,0,60.44,0,125.41s52.66,117.64,117.63,117.64,117.64-52.67,117.64-117.64S182.6,7.77,117.63,7.77ZM153.63,191.9c-1.36,0-16.4-.07-17.72-.21h-36.55c-1.32.14-16.36.21-17.72.21-21.09,0-38.25-17.16-38.25-38.26s17.16-38.26,38.25-38.26c1.36,0,15.66-.07,15.66-.07,0,0-.93,10.39-5,14.47-4.08,4.07-9.29,3.88-10.66,3.88-11.01,0-19.98,8.96-19.98,19.98s8.97,19.98,19.98,19.98c1.37,0,17.72.03,17.72.03h8.21v-69.26h-27.69v-18.06h20.72c-3.34-3.96-5.36-9.08-5.36-14.67,0-12.36,9.87-22.42,22.15-22.73.06-.01.11-.01.17-.01h.15c.06,0,.11,0,.17.01,12.29.31,22.15,10.38,22.15,22.73,0,5.59-2.02,10.71-5.36,14.67h20.72v18.06h-27.69v69.26h8.21s16.35-.03,17.72-.03c11.01,0,19.98-8.96,19.98-19.98s-8.97-19.98-19.98-19.98c-1.37,0-6.58.19-10.66-3.88-4.07-4.08-5-14.47-5-14.47,0,0,14.3.07,15.66.07,21.09,0,38.25,17.17,38.25,38.26s-17.16,38.26-38.25,38.26Z"/>
  <g>
    <path class="cls-1" d="M767.34,153.38h-16.51c0-9.95-8.1-18.05-18.05-18.05s-18.05,8.1-18.05,18.05v34.76h-16.51v-69.36h16.51v5.14c5.26-3.24,11.44-5.1,18.05-5.1,19.06,0,34.56,15.5,34.56,34.56Z"/>
    <path class="cls-1" d="M620.73,153.38v34.76h-16.51v-34.76c0-9.96-8.1-18.05-18.05-18.05s-18.05,8.1-18.05,18.05v34.76h-16.51v-106.5h16.51v42.28c5.26-3.24,11.44-5.1,18.05-5.1,19.06,0,34.56,15.5,34.56,34.56Z"/>
    <path class="cls-1" d="M659.48,187.72c-19.06,0-34.56-15.5-34.56-34.56s15.5-34.56,34.56-34.56,34.56,15.5,34.56,34.56-15.5,34.56-34.56,34.56ZM659.48,135.11c-9.95,0-18.05,8.1-18.05,18.05s8.1,18.05,18.05,18.05,18.05-8.1,18.05-18.05-8.1-18.05-18.05-18.05Z"/>
    <path class="cls-1" d="M423.27,152.96v34.77h-16.51v-34.77c0-9.95-8.1-18.05-18.05-18.05s-18.05,8.1-18.05,18.05v34.77h-16.51v-69.37h16.51v5.14c5.26-3.24,11.44-5.1,18.05-5.1,19.06,0,34.56,15.5,34.56,34.56Z"/>
    <path class="cls-1" d="M333.6,118.18v7.11c-5.62-3.95-12.46-6.27-19.83-6.27-19.06,0-34.56,15.5-34.56,34.56s15.5,34.56,34.56,34.56c7.37,0,14.22-2.32,19.83-6.27v5.68h16.51v-69.37h-16.51ZM313.77,171.63c-9.95,0-18.05-8.1-18.05-18.05s8.1-18.05,18.05-18.05,18.05,8.1,18.05,18.05-8.1,18.05-18.05,18.05Z"/>
    <path class="cls-1" d="M486.9,171.11h-7.66s-15.26-.03-16.54-.03c-10.28,0-18.65-8.36-18.65-18.65s8.37-18.65,18.65-18.65c1.28,0,6.14.18,9.95-3.62,3.8-3.81,4.67-13.51,4.67-13.51,0,0-13.35.07-14.62.07-19.69,0-35.71,16.03-35.71,35.71s16.02,35.71,35.71,35.71c1.27,0,15.31-.07,16.54-.2h7.78l-.12-16.84Z"/>
    <path class="cls-1" d="M546.87,171.11h-7.66s-15.26-.03-16.54-.03c-10.28,0-18.65-8.36-18.65-18.65s8.37-18.65,18.65-18.65c1.28,0,6.14.18,9.95-3.62,3.8-3.81,4.67-13.51,4.67-13.51,0,0-13.35.07-14.62.07-19.69,0-35.71,16.03-35.71,35.71s16.02,35.71,35.71,35.71c1.27,0,15.31-.07,16.54-.2h7.78l-.12-16.84Z"/>
  </g>
</svg>