<?xml version="1.0" encoding="UTF-8"?>
<svg id="Layer_2" data-name="Layer 2" xmlns="http://www.w3.org/2000/svg" viewBox="0 0 671.85 193.27">
  <defs>
    <style>
      .cls-1 {
        fill: #494949;
        stroke: #fff;
        stroke-miterlimit: 10;
      }

      .cls-2 {
        fill: #4694ce;
      }
    </style>
  </defs>
  <path class="cls-2" d="M75.64,37.9v-12.76c-12.51.06-22.64,10.23-22.64,22.75,0,5.59,2.02,10.71,5.36,14.67h-20.72v18.06h27.69v69.26h-8.21s-16.35-.03-17.72-.03c-11.01,0-19.98-8.96-19.98-19.98s8.97-19.98,19.98-19.98c1.37,0,6.58.19,10.66-3.88,4.07-4.08,5-14.47,5-14.47,0,0-14.3.07-15.66.07-21.09,0-38.25,17.17-38.25,38.26s17.16,38.26,38.25,38.26c1.36,0,16.4-.07,17.72-.21h18.52V57.88c-5.47-.06-9.88-4.51-9.88-9.99s4.41-9.93,9.88-9.99Z"/>
  <path class="cls-2" d="M85.03,47.89c0,5.48-4.41,9.93-9.88,9.99v110.04s18.52,0,18.52,0c1.32.14,16.36.21,17.72.21,21.09,0,38.25-17.16,38.25-38.26s-17.16-38.26-38.25-38.26c-1.36,0-15.66-.07-15.66-.07,0,0,.93,10.39,5,14.47,4.08,4.07,9.29,3.88,10.66,3.88,11.01,0,19.98,8.96,19.98,19.98s-8.97,19.98-19.98,19.98c-1.37,0-17.72.03-17.72.03h-8.21v-69.26h27.69s0-18.06,0-18.06h-20.72c3.34-3.96,5.36-9.08,5.36-14.67,0-12.52-10.13-22.69-22.64-22.75v12.76c5.47.06,9.88,4.51,9.88,9.99Z"/>
  <g>
    <path class="cls-1" d="M671.26,133.37h-16.51c0-9.95-8.1-18.05-18.05-18.05s-18.05,8.1-18.05,18.05v34.76h-16.51v-69.36h16.51v5.14c5.26-3.24,11.44-5.1,18.05-5.1,19.06,0,34.56,15.5,34.56,34.56Z"/>
    <path class="cls-1" d="M524.66,133.37v34.76h-16.51v-34.76c0-9.96-8.1-18.05-18.05-18.05s-18.05,8.1-18.05,18.05v34.76h-16.51V61.63h16.51v42.28c5.26-3.24,11.44-5.1,18.05-5.1,19.06,0,34.56,15.5,34.56,34.56Z"/>
    <path class="cls-1" d="M563.4,167.71c-19.06,0-34.56-15.5-34.56-34.56s15.5-34.56,34.56-34.56,34.56,15.5,34.56,34.56-15.5,34.56-34.56,34.56ZM563.4,115.09c-9.95,0-18.05,8.1-18.05,18.05s8.1,18.05,18.05,18.05,18.05-8.1,18.05-18.05-8.1-18.05-18.05-18.05Z"/>
    <path class="cls-1" d="M327.2,132.95v34.77h-16.51v-34.77c0-9.95-8.1-18.05-18.05-18.05s-18.05,8.1-18.05,18.05v34.77h-16.51v-69.37h16.51v5.14c5.26-3.24,11.44-5.1,18.05-5.1,19.06,0,34.56,15.5,34.56,34.56Z"/>
    <path class="cls-1" d="M237.53,98.17v7.11c-5.62-3.95-12.46-6.27-19.83-6.27-19.06,0-34.56,15.5-34.56,34.56s15.5,34.56,34.56,34.56c7.37,0,14.22-2.32,19.83-6.27v5.68h16.51v-69.37h-16.51ZM217.7,151.62c-9.95,0-18.05-8.1-18.05-18.05s8.1-18.05,18.05-18.05,18.05,8.1,18.05,18.05-8.1,18.05-18.05,18.05Z"/>
    <path class="cls-1" d="M390.83,151.09h-7.66s-15.26-.03-16.54-.03c-10.28,0-18.65-8.36-18.65-18.65s8.37-18.65,18.65-18.65c1.28,0,6.14.18,9.95-3.62,3.8-3.81,4.67-13.51,4.67-13.51,0,0-13.35.07-14.62.07-19.69,0-35.71,16.03-35.71,35.71s16.02,35.71,35.71,35.71c1.27,0,15.31-.07,16.54-.2h7.78l-.12-16.84Z"/>
    <path class="cls-1" d="M450.79,151.09h-7.66s-15.26-.03-16.54-.03c-10.28,0-18.65-8.36-18.65-18.65s8.37-18.65,18.65-18.65c1.28,0,6.14.18,9.95-3.62,3.8-3.81,4.67-13.51,4.67-13.51,0,0-13.35.07-14.62.07-19.69,0-35.71,16.03-35.71,35.71s16.02,35.71,35.71,35.71c1.27,0,15.31-.07,16.54-.2h7.78l-.12-16.84Z"/>
  </g>
</svg>